#!OML:ASF E:\motion texture\Top Level 1\Subject 1\Session 1\male.ASF
:FULLY-SPECIFIED
:DEGREES
257
root 11.9596 17.5061 8.85064 29.4169 -61.8129 -12.6159
lowerback 14.4023 3.80448 -4.29308
upperback 5.41697 4.0789 -2.92749
thorax -2.41263 1.91174 -1.30975
lowerneck -2.08572 -16.9496 -21.5989
upperneck -12.3176 -22.0169 31.8948
head 3.342 -11.4862 11.6651
rclavicle -6.36111e-014 5.00937e-014
rhumerus 9.74103 43.8111 -90.5452
rradius 45.1595
rwrist 17.5165
rhand -24.8264 -33.7047
rfingers 7.12502
rthumb 1.67919 -63.6779
lclavicle -6.36111e-014 5.00937e-014
lhumerus -2.06085 -12.9845 93.9818
lradius 53.5928
lwrist 24.2179
lhand -2.59496 46.522
lfingers 7.12502
lthumb 23.1026 75.1569
rfemur -50.2351 -21.2524 31.1209
rtibia 37.5561
rfoot -9.13307 -18.0715
rtoes 0.0258668
lfemur -34.9149 0.389623 -3.20356
ltibia 37.3647
lfoot -14.3888 2.53986
ltoes -17.4658
258
root 11.8057 17.5137 8.87641 29.0491 -62.127 -12.3466
lowerback 14.1857 3.6722 -4.36519
upperback 5.34589 3.90919 -3.00714
thorax -2.36891 1.82974 -1.31373
lowerneck -2.10438 -16.9037 -21.4721
upperneck -12.2061 -21.9787 31.9489
head 3.36144 -11.4685 11.6696
rclavicle -1.27222e-014 -1.74931e-014
rhumerus 8.16815 43.0408 -91.0779
rradius 46.7421
rwrist 17.2513
rhand -24.8297 -33.9783
rfingers 7.12502
rthumb 1.67605 -63.9514
lclavicle -1.27222e-014 -1.74931e-014
lhumerus -3.21655 -13.509 93.4853
lradius 54.5011
lwrist 23.9067
lhand -1.98985 45.6396
lfingers 7.12502
lthumb 23.6831 74.2006
rfemur -50.0748 -20.7238 30.4298
rtibia 36.0605
rfoot -8.71161 -18.0872
rtoes 0.0973085
lfemur -33.98 0.264494 -3.30028
ltibia 37.1156
lfoot -14.5278 2.78156
ltoes -18.1133
259
root 11.6492 17.5192 8.90153 28.6647 -62.4583 -12.0819
lowerback 13.9543 3.53149 -4.44332
upperback 5.26815 3.72878 -3.08924
thorax -2.32403 1.74248 -1.31533
lowerneck -2.13595 -16.848 -21.3443
upperneck -12.0601 -21.9306 31.9839
head 3.38665 -11.4425 11.6679
rclavicle 4.6118e-014 6.67916e-014
rhumerus 6.6325 42.2251 -91.5042
rradius 48.4328
rwrist 16.9382
rhand -24.8565 -34.3146
rfingers 7.12502
rthumb 1.65015 -64.288
lclavicle 4.6118e-014 6.67916e-014
lhumerus -4.36698 -13.973 93.0013
lradius 55.4123
lwrist 23.5253
lhand -1.40681 44.7127
lfingers 7.12502
lthumb 24.2422 73.2002
rfemur -49.8607 -20.153 29.711
rtibia 34.6028
rfoot -8.27049 -18.1387
rtoes 0.169944
lfemur -33.0289 0.140436 -3.39522
ltibia 36.8965
lfoot -14.6553 3.01612
ltoes -18.7934
260
root 11.49 17.5229 8.92592 28.2655 -62.8068 -11.8231
lowerback 13.7076 3.38356 -4.52729
upperback 5.18414 3.53939 -3.17238
thorax -2.27746 1.65079 -1.31358
lowerneck -2.18118 -16.7837 -21.2175
upperneck -11.879 -21.8744 31.9994
head 3.41858 -11.4087 11.6598
rclavicle -1.27222e-014 -2.70347e-014
rhumerus 5.14093 41.3677 -91.8132
rradius 50.2334
rwrist 16.5749
rhand -24.8991 -34.7071
rfingers 7.12502
rthumb 1.60904 -64.6808
lclavicle -1.27222e-014 -2.70347e-014
lhumerus -5.51037 -14.3722 92.5275
lradius 56.3208
lwrist 23.0772
lhand -0.851996 43.745
lfingers 7.12502
lthumb 24.7741 72.1605
rfemur -49.5989 -19.5398 28.9702
rtibia 33.1938
rfoot -7.82741 -18.2225
rtoes 0.23493
lfemur -32.0627 0.017261 -3.48744
ltibia 36.7081
lfoot -14.7697 3.24364
ltoes -19.5036
261
root 11.3282 17.5248 8.94956 27.8557 -63.173 -11.5746
lowerback 13.4476 3.22791 -4.61396
upperback 5.0936 3.34066 -3.25653
thorax -2.23015 1.55452 -1.31041
lowerneck -2.24283 -16.7106 -21.0913
upperneck -11.6614 -21.8096 31.9944
head 3.45778 -11.3666 11.6448
rclavicle -5.725e-014 5.08889e-014
rhumerus 3.70129 40.4857 -91.9957
rradius 52.143
rwrist 16.149
rhand -24.9681 -35.1658
rfingers 7.12502
rthumb 1.54234 -65.14
lclavicle -5.725e-014 5.08889e-014
lhumerus -6.64502 -14.6993 92.0583
lradius 57.2201
lwrist 22.5623
lhand -0.335795 42.7478
lfingers 7.12502
lthumb 25.2687 71.0943
rfemur -49.2962 -18.8858 28.2166
rtibia 31.8449
rfoot -7.39011 -18.3322
rtoes 0.304806
lfemur -31.0816 -0.104122 -3.57528
ltibia 36.5502
lfoot -14.8682 3.46463
ltoes -20.2443
262
root 11.1637 17.525 8.97246 27.4378 -63.5575 -11.3396
lowerback 13.1745 3.066 -4.70159
upperback 4.9977 3.13476 -3.34043
thorax -2.18102 1.45469 -1.30595
lowerneck -2.3224 -16.6302 -20.9668
upperneck -11.4073 -21.7379 31.9683
head 3.505 -11.317 11.622
rclavicle -5.48646e-014 -1.90833e-014
rhumerus 2.31992 39.5766 -92.0465
rradius 54.1585
rwrist 15.6642
rhand -25.0574 -35.6905
rfingers 7.12502
rthumb 1.45616 -65.6653
lclavicle -5.48646e-014 -1.90833e-014
lhumerus -7.76719 -14.9509 91.5918
lradius 58.1022
lwrist 21.9802
lhand 0.13854 41.7253
lfingers 7.12502
lthumb 25.7231 70.0069
rfemur -48.9589 -18.1957 27.46
rtibia 30.5666
rfoot -6.95697 -18.4692
rtoes 0.381504
lfemur -30.0852 -0.223709 -3.65823
ltibia 36.423
lfoot -14.9479 3.67956
ltoes -21.0118
263
root 10.9964 17.5237 8.99454 27.0127 -63.9599 -11.1184
lowerback 12.892 2.89809 -4.78836
upperback 4.89543 2.92195 -3.42405
thorax -2.13286 1.35149 -1.3016
lowerneck -2.41936 -16.5423 -20.8426
upperneck -11.1177 -21.659 31.919
head 3.55934 -11.2597 11.591
rclavicle 3.97569e-014 -3.81667e-014
rhumerus 1.00046 38.6491 -91.9589
rradius 56.2788
rwrist 15.1181
rhand -25.1714 -36.2799
rfingers 7.12502
rthumb 1.34604 -66.2554
lclavicle 3.97569e-014 -3.81667e-014
lhumerus -8.87775 -15.1241 91.1235
lradius 58.9616
lwrist 21.332
lhand 0.564272 40.6848
lfingers 7.12502
lthumb 26.1307 68.9068
rfemur -48.5932 -17.4751 26.7099
rtibia 29.3677
rfoot -6.5236 -18.6219
rtoes 0.471105
lfemur -29.0752 -0.342579 -3.73654
ltibia 36.3275
lfoot -15.0063 3.88883
ltoes -21.8024
264
root 10.8265 17.521 9.01574 26.5818 -64.3797 -10.9122
lowerback 12.5998 2.72609 -4.87435
upperback 4.78682 2.70477 -3.50606
thorax -2.08561 1.24616 -1.29642
lowerneck -2.52713 -16.4467 -20.7171
upperneck -10.7982 -21.5726 31.8463
head 3.61792 -11.1953 11.5523
rclavicle -4.69132e-014 2.06736e-014
rhumerus -0.253629 37.6931 -91.7323
rradius 58.4954
rwrist 14.5313
rhand -25.305 -36.9277
rfingers 7.12502
rthumb 1.21699 -66.9039
lclavicle -4.69132e-014 2.06736e-014
lhumerus -9.97596 -15.2206 90.6516
lradius 59.7912
lwrist 20.6216
lhand 0.937076 39.6344
lfingers 7.12502
lthumb 26.4876 67.8031
rfemur -48.2058 -16.7318 25.9773
rtibia 28.2563
rfoot -6.09755 -18.772
rtoes 0.588237
lfemur -28.0533 -0.461354 -3.81035
ltibia 36.2646
lfoot -15.0397 4.09326
ltoes -22.6123
265
root 10.6538 17.517 9.03605 26.1445 -64.8175 -10.7202
lowerback 12.299 2.55035 -4.96007
upperback 4.67291 2.48358 -3.58514
thorax -2.03884 1.13884 -1.2889
lowerneck -2.64707 -16.3436 -20.5918
upperneck -10.4496 -21.4782 31.7494
head 3.68082 -11.1237 11.5058
rclavicle 5.32743e-014 -3.18055e-015
rhumerus -1.43591 36.7235 -91.3578
rradius 60.8054
rwrist 13.8933
rhand -25.4709 -37.6411
rfingers 7.12502
rthumb 1.05679 -67.6183
lclavicle 5.32743e-014 -3.18055e-015
lhumerus -11.0608 -15.2374 90.1727
lradius 60.5859
lwrist 19.8531
lhand 1.24925 38.584
lfingers 7.12502
lthumb 26.7864 66.7073
rfemur -47.8017 -15.9718 25.2704
rtibia 27.2395
rfoot -5.67918 -18.9043
rtoes 0.722478
lfemur -27.0197 -0.580945 -3.88115
ltibia 36.2339
lfoot -15.0441 4.29366
ltoes -23.434
266
root 10.4785 17.5118 9.05533 25.7007 -65.2718 -10.5404
lowerback 11.9874 2.37093 -5.04774
upperback 4.5562 2.25863 -3.65755
thorax -1.98887 1.02956 -1.27391
lowerneck -2.78256 -16.234 -20.4716
upperneck -10.0739 -21.3763 31.6283
head 3.74883 -11.0447 11.452
rclavicle -9.62118e-014 -4.77083e-015
rhumerus -2.53434 35.7415 -90.8236
rradius 63.2
rwrist 13.2214
rhand -25.6474 -38.4052
rfingers 7.12502
rthumb 0.886318 -68.3831
lclavicle -9.62118e-014 -4.77083e-015
lhumerus -12.1256 -15.171 89.6873
lradius 61.3371
lwrist 19.0319
lhand 1.49678 37.5382
lfingers 7.12502
lthumb 27.0232 65.625
rfemur -47.388 -15.2028 24.5975
rtibia 26.3243
rfoot -5.27052 -19.0143
rtoes 0.888495
lfemur -25.9793 -0.703019 -3.95027
ltibia 36.2371
lfoot -15.0161 4.49026
ltoes -24.2676
267
root 10.3007 17.5054 9.07355 25.251 -65.7431 -10.3735
lowerback 11.6722 2.18727 -5.13007
upperback 4.43235 2.02899 -3.72923
thorax -1.94354 0.918067 -1.26209
lowerneck -2.93097 -16.1174 -20.3486
upperneck -9.66651 -21.2671 31.4819
head 3.8219 -10.9589 11.3893
rclavicle -3.18055e-015 -9.22361e-014
rhumerus -3.55257 34.7492 -90.1437
rradius 65.6664
rwrist 12.5229
rhand -25.8542 -39.2149
rfingers 7.12502
rthumb 0.686569 -69.1935
lclavicle -3.18055e-015 -9.22361e-014
lhumerus -13.1769 -15.0265 89.1822
lradius 62.0393
lwrist 18.1669
lhand 1.67962 36.501
lfingers 7.12502
lthumb 27.1981 64.5605
rfemur -46.9684 -14.4321 23.967
rtibia 25.5164
rfoot -4.87178 -19.0993
rtoes 1.08887
lfemur -24.9321 -0.827781 -4.01861
ltibia 36.273
lfoot -14.9506 4.68248
ltoes -25.088
268
root 10.1203 17.498 9.09062 24.7966 -66.2289 -10.2195
lowerback 11.3494 2.00205 -5.21202
upperback 4.30508 1.79833 -3.79378
thorax -1.89723 0.806023 -1.24433
lowerneck -3.08801 -15.9941 -20.2254
upperneck -9.23737 -21.1497 31.3094
head 3.89663 -10.8666 11.3189
rclavicle -4.77083e-015 5.88403e-014
rhumerus -4.48075 33.7464 -89.3033
rradius 68.1939
rwrist 11.8108
rhand -26.0858 -40.0532
rfingers 7.12502
rthumb 0.462874 -70.0324
lclavicle -4.77083e-015 5.88403e-014
lhumerus -14.2069 -14.8066 88.6637
lradius 62.6832
lwrist 17.2642
lhand 1.79324 35.4813
lfingers 7.12502
lthumb 27.3068 63.5237
rfemur -46.5472 -13.6695 23.388
rtibia 24.8207
rfoot -4.4849 -19.1494
rtoes 1.31292
lfemur -23.8824 -0.956419 -4.08647
ltibia 36.3434
lfoot -14.8449 4.87032
ltoes -25.8996
269
root 9.9375 17.4897 9.10646 24.341 -66.7278 -10.0819
lowerback 11.0238 1.81278 -5.28701
upperback 4.17391 1.56356 -3.85267
thorax -1.85276 0.691986 -1.2257
lowerneck -3.2606 -15.8646 -20.1033
upperneck -8.78145 -21.0246 31.112
head 3.97623 -10.7673 11.2404
rclavicle 7.95139e-016 7.95139e-015
rhumerus -5.31178 32.7403 -88.3064
rradius 70.7654
rwrist 11.0956
rhand -26.3509 -40.9134
rfingers 7.12502
rthumb 0.206883 -70.8931
lclavicle 7.95139e-016 7.95139e-015
lhumerus -15.216 -14.5095 88.1227
lradius 63.2643
lwrist 16.3341
lhand 1.84523 34.486
lfingers 7.12502
lthumb 27.3566 62.5206
rfemur -46.1264 -12.9248 22.87
rtibia 24.2392
rfoot -4.11224 -19.1493
rtoes 1.5571
lfemur -22.8324 -1.0889 -4.15308
ltibia 36.4497
lfoot -14.6952 5.05192
ltoes -26.6906
270
root 9.75234 17.4807 9.12098 23.8887 -67.2375 -9.96418
lowerback 10.6955 1.62254 -5.35507
upperback 4.03886 1.32877 -3.90373
thorax -1.81022 0.578003 -1.20447
lowerneck -3.44112 -15.7297 -19.9807
upperneck -8.30465 -20.8924 30.8898
head 4.05797 -10.6626 11.1543
rclavicle 2.38542e-014 -3.18055e-015
rhumerus -6.04246 31.7247 -87.1502
rradius 73.3645
rwrist 10.3887
rhand -26.646 -41.777
rfingers 7.12502
rthumb -0.0781622 -71.7567
lclavicle 2.38542e-014 -3.18055e-015
lhumerus -16.2024 -14.1446 87.561
lradius 63.7734
lwrist 15.3848
lhand 1.82412 33.5368
lfingers 7.12502
lthumb 27.3364 61.5746
rfemur -45.7076 -12.2047 22.4196
rtibia 23.7724
rfoot -3.75243 -19.0952
rtoes 1.82412
lfemur -21.7854 -1.22492 -4.21704
ltibia 36.5923
lfoot -14.4953 5.2254
ltoes -27.4378
